<?xml version="1.0" standalone="no"?>
<!DOCTYPE svg PUBLIC "-//W3C//DTD SVG 20010904//EN"
 "http://www.w3.org/TR/2001/REC-SVG-20010904/DTD/svg10.dtd">
<svg version="1.0" xmlns="http://www.w3.org/2000/svg"
 width="1200.000000pt" height="1200.000000pt" viewBox="0 0 1200.000000 1200.000000"
 preserveAspectRatio="xMidYMid meet">
<metadata>
Created by potrace 1.14, written by Peter Selinger 2001-2017
</metadata>
<g transform="translate(0.000000,1200.000000) scale(0.100000,-0.100000)"
fill="#000000" stroke="none">
<path d="M5795 9119 c-104 -61 -208 -122 -231 -134 -22 -13 -132 -77 -245
-143 -576 -334 -1236 -718 -1414 -820 -110 -63 -205 -120 -212 -126 -8 -8 -12
-124 -16 -394 -4 -347 -3 -384 12 -390 9 -3 18 -8 21 -11 3 -3 25 -17 50 -30
25 -13 52 -30 61 -38 9 -7 19 -10 22 -6 4 3 7 1 7 -6 0 -8 8 -11 20 -8 11 3
18 1 15 -4 -5 -7 41 -37 62 -41 5 0 13 -7 18 -14 6 -7 16 -14 24 -16 8 -2 23
-11 33 -21 10 -10 23 -15 28 -12 6 4 10 2 10 -2 0 -5 9 -14 21 -21 17 -11 20
-11 13 0 -4 7 4 2 18 -11 l26 -25 -220 -127 c-121 -70 -224 -131 -228 -136 -4
-4 -10 -180 -13 -391 -4 -381 -4 -383 17 -395 12 -6 23 -12 26 -12 3 0 24 -13
47 -28 24 -15 47 -27 53 -27 5 0 10 -4 10 -9 0 -7 36 -22 49 -20 2 0 7 -3 10
-8 13 -19 62 -43 73 -37 7 4 8 3 4 -4 -4 -7 7 -19 31 -29 21 -10 44 -23 51
-30 7 -7 20 -9 29 -6 10 4 14 2 10 -4 -3 -5 6 -16 21 -24 15 -8 51 -29 80 -47
29 -18 58 -30 64 -26 6 4 8 3 5 -3 -7 -11 40 -36 53 -28 5 3 12 0 16 -6 5 -8
3 -9 -6 -4 -9 5 -11 4 -6 -3 4 -7 13 -12 21 -12 7 0 15 -3 17 -7 6 -15 68 -44
78 -38 6 4 9 1 8 -7 -2 -7 3 -12 10 -11 6 2 12 -2 12 -7 0 -6 7 -10 15 -10 8
0 15 -5 15 -11 0 -6 9 -9 20 -6 11 3 18 2 15 -3 -5 -9 38 -40 55 -40 6 0 18
-7 27 -16 9 -8 23 -12 31 -9 9 3 13 3 9 -1 -9 -10 44 -45 56 -37 6 3 7 1 3 -5
-4 -7 -2 -13 3 -13 6 -1 16 -2 21 -3 6 0 14 -6 18 -12 4 -6 32 -24 62 -40 30
-16 57 -32 60 -35 3 -3 34 -21 70 -40 36 -19 67 -36 70 -39 3 -3 15 -11 28
-18 19 -11 27 -11 40 0 15 11 15 11 4 -3 -11 -15 -7 -20 34 -43 26 -14 53 -26
60 -26 8 0 14 -4 14 -8 0 -5 12 -15 28 -22 15 -8 39 -23 55 -33 15 -10 27 -15
27 -10 0 4 4 3 8 -2 12 -18 83 -56 93 -49 5 3 8 2 7 -3 -2 -4 0 -9 5 -10 4 -2
17 -12 29 -23 12 -11 27 -20 34 -20 7 0 20 -7 29 -16 8 -9 22 -13 30 -10 8 3
14 1 12 -4 -2 -9 71 -55 106 -67 9 -3 17 -9 17 -14 0 -5 5 -9 11 -9 6 0 23 -8
37 -19 45 -31 122 -71 122 -63 0 4 4 2 8 -3 4 -6 31 -26 60 -44 44 -28 56 -32
63 -20 8 11 9 10 7 -6 -8 -52 -35 -67 1347 736 846 492 980 570 986 577 4 4 9
180 11 390 l3 384 -42 24 c-24 13 -43 21 -43 17 0 -3 -8 4 -19 15 -20 24 -37
18 -19 -7 10 -14 10 -14 -2 -3 -8 7 -15 18 -15 24 0 16 -64 50 -77 42 -6 -4
-8 -2 -5 3 8 13 -20 26 -35 16 -6 -3 -8 -1 -4 5 8 13 -60 56 -79 48 -9 -3 -12
0 -8 10 3 8 -1 14 -10 14 -9 0 -23 7 -32 16 -8 9 -22 13 -30 10 -8 -3 -14 0
-12 7 1 7 -5 12 -14 11 -28 -2 -17 23 20 42 63 34 404 233 412 241 4 4 9 180
11 390 l5 383 -25 16 c-13 8 -26 13 -29 10 -3 -3 -13 4 -22 15 -9 12 -28 22
-43 22 -14 1 -24 5 -22 9 4 6 -21 22 -131 86 -22 13 -52 28 -67 35 -16 6 -28
15 -28 19 0 4 -5 8 -10 8 -6 0 -28 12 -50 26 -21 14 -43 23 -49 20 -5 -4 -13
-1 -17 5 -5 8 -2 10 7 5 8 -4 5 0 -5 8 -11 9 -26 16 -33 16 -7 0 -13 5 -13 10
0 6 -7 10 -16 10 -9 0 -30 12 -47 26 -17 14 -38 23 -48 21 -10 -3 -17 0 -16 6
1 6 -11 18 -28 27 -16 8 -41 23 -54 32 -13 10 -28 15 -33 12 -4 -3 -8 0 -8 6
0 7 -7 10 -15 6 -8 -3 -14 -2 -14 2 3 19 -2 25 -11 12 -8 -13 -10 -12 -10 3 0
10 -4 15 -10 12 -5 -3 -10 -2 -10 2 0 14 -54 41 -69 35 -8 -2 -11 0 -8 5 8 13
-70 53 -91 47 -13 -4 -14 -3 -4 4 10 7 5 14 -23 31 -20 12 -41 19 -46 16 -5
-4 -9 -2 -9 4 0 6 -17 20 -37 31 -39 21 -51 28 -112 67 -19 12 -38 20 -43 17
-4 -3 -8 0 -8 5 0 6 -7 11 -15 11 -8 0 -15 5 -15 10 0 6 -7 10 -16 10 -8 0
-22 7 -31 16 -9 8 -22 13 -29 10 -8 -3 -13 0 -11 7 1 7 -6 11 -15 11 -10 -1
-15 2 -12 7 3 5 -2 9 -10 9 -9 0 -16 4 -16 9 0 5 -8 11 -17 15 -10 3 -31 14
-48 25 -16 10 -33 16 -37 14 -5 -2 -8 1 -8 6 0 6 -7 11 -15 11 -8 0 -15 4 -15
8 0 5 -18 17 -40 27 -22 10 -45 24 -51 32 -15 17 -43 18 -33 1 4 -8 3 -10 -2
-5 -5 5 -9 13 -9 18 0 5 -3 9 -7 9 -5 0 -17 9 -28 20 -12 12 -25 18 -30 15 -6
-4 -10 -2 -10 2 0 5 -9 14 -21 21 -17 11 -20 11 -14 0 5 -7 0 -5 -11 5 -33 32
-288 177 -302 172 -7 -3 -11 -1 -8 4 3 4 -7 14 -22 22 -15 8 -29 16 -32 19 -8
8 -49 30 -56 30 -4 0 0 -8 7 -17 13 -16 12 -17 -3 -5 -10 8 -16 19 -15 25 6
32 -55 7 -228 -94z m305 7 c0 -2 -8 -10 -17 -17 -16 -13 -17 -12 -4 4 13 16
21 21 21 13z m-4 -48 c3 -4 -1 -5 -10 -4 -8 1 -18 5 -22 8 -3 4 1 5 10 4 8 -1
18 -5 22 -8z m124 8 c0 -2 -8 -10 -17 -17 -16 -13 -17 -12 -4 4 13 16 21 21
21 13z m-133 -41 c0 -8 -4 -12 -9 -9 -5 3 -6 10 -3 15 9 13 12 11 12 -6z m114
-18 c-10 -9 -11 -8 -5 6 3 10 9 15 12 12 3 -3 0 -11 -7 -18z m49 19 c0 -2 -7
-7 -16 -10 -8 -3 -12 -2 -9 4 6 10 25 14 25 6z m41 -43 c13 -16 12 -17 -3 -4
-10 7 -18 15 -18 17 0 8 8 3 21 -13z m153 -49 c3 -8 2 -12 -4 -9 -6 3 -10 10
-10 16 0 14 7 11 14 -7z m-309 -14 c3 -6 -1 -7 -9 -4 -18 7 -21 14 -7 14 6 0
13 -4 16 -10z m-45 -24 c-7 -7 -13 -7 -20 0 -6 6 -3 10 10 10 13 0 16 -4 10
-10z m200 -32 c0 -8 -19 -13 -24 -6 -3 5 1 9 9 9 8 0 15 -2 15 -3z m0 -28 c0
-2 -8 -10 -17 -17 -16 -13 -17 -12 -4 4 13 16 21 21 21 13z m241 -13 c13 -16
12 -17 -3 -4 -10 7 -18 15 -18 17 0 8 8 3 21 -13z m-284 -8 c0 -8 -4 -12 -9
-9 -5 3 -6 10 -3 15 9 13 12 11 12 -6z m318 6 c3 -5 2 -12 -3 -15 -5 -3 -9 1
-9 9 0 17 3 19 12 6z m-344 -48 c13 -16 12 -17 -3 -4 -10 7 -18 15 -18 17 0 8
8 3 21 -13z m323 1 c3 -8 2 -12 -4 -9 -6 3 -10 10 -10 16 0 14 7 11 14 -7z
m-377 -29 c0 -8 -4 -12 -9 -9 -5 3 -6 10 -3 15 9 13 12 11 12 -6z m204 -2 c13
-16 12 -17 -3 -4 -10 7 -18 15 -18 17 0 8 8 3 21 -13z m116 2 c0 -8 -4 -12 -9
-9 -5 3 -6 10 -3 15 9 13 12 11 12 -6z m240 0 c0 -8 -4 -12 -9 -9 -5 3 -6 10
-3 15 9 13 12 11 12 -6z m-526 -12 c13 -16 12 -17 -3 -4 -10 7 -18 15 -18 17
0 8 8 3 21 -13z m320 0 c13 -16 12 -17 -3 -4 -10 7 -18 15 -18 17 0 8 8 3 21
-13z m240 0 c13 -16 12 -17 -3 -4 -10 7 -18 15 -18 17 0 8 8 3 21 -13z m3 -31
c3 -5 -1 -9 -9 -9 -8 0 -12 4 -9 9 3 4 7 8 9 8 2 0 6 -4 9 -8z m7 -39 c13 -16
12 -17 -3 -4 -10 7 -18 15 -18 17 0 8 8 3 21 -13z m-727 -53 c-6 -6 -10 -3
-10 10 0 13 4 16 10 10 7 -7 7 -13 0 -20z m344 5 c-3 -3 -9 2 -12 12 -6 14 -5
15 5 6 7 -7 10 -15 7 -18z m320 0 c-3 -3 -9 2 -12 12 -6 14 -5 15 5 6 7 -7 10
-15 7 -18z m-623 5 c3 -5 1 -10 -4 -10 -6 0 -11 5 -11 10 0 6 2 10 4 10 3 0 8
-4 11 -10z m851 -2 c3 -4 -1 -5 -10 -4 -8 1 -18 5 -22 8 -3 4 1 5 10 4 8 -1
18 -5 22 -8z m-6 -22 c0 -2 -8 -10 -17 -17 -16 -13 -17 -12 -4 4 13 16 21 21
21 13z m34 -26 c-6 -6 -10 -3 -10 10 0 13 4 16 10 10 7 -7 7 -13 0 -20z m-763
3 c13 -16 12 -17 -3 -4 -10 7 -18 15 -18 17 0 8 8 3 21 -13z m133 9 c2 -4 -4
-8 -14 -8 -10 0 -16 4 -14 8 3 4 9 8 14 8 5 0 11 -4 14 -8z m320 0 c2 -4 -4
-8 -14 -8 -10 0 -16 4 -14 8 3 4 9 8 14 8 5 0 11 -4 14 -8z m350 -8 c3 -8 2
-12 -4 -9 -6 3 -10 10 -10 16 0 14 7 11 14 -7z m-144 -68 c0 -2 -8 -10 -17
-17 -16 -13 -17 -12 -4 4 13 16 21 21 21 13z m320 0 c0 -2 -8 -10 -17 -17 -16
-13 -17 -12 -4 4 13 16 21 21 21 13z m-365 -46 c-3 -5 -12 -10 -18 -10 -7 0
-6 4 3 10 19 12 23 12 15 0z m-475 -16 c0 -8 -19 -13 -24 -6 -3 5 1 9 9 9 8 0
15 -2 15 -3z m-335 -14 c4 -6 11 -8 16 -5 5 4 9 1 9 -5 0 -7 7 -9 16 -6 9 3
12 2 9 -4 -4 -6 7 -15 24 -21 17 -6 31 -15 31 -20 0 -5 5 -9 11 -9 7 0 46 -21
88 -46 42 -26 81 -47 88 -47 7 0 15 -7 18 -15 4 -12 8 -12 20 -2 13 11 14 10
9 -3 -4 -12 2 -18 20 -23 14 -3 26 -11 26 -17 0 -6 3 -8 6 -4 4 3 13 -1 21 -9
8 -8 18 -12 23 -9 4 3 11 -2 14 -11 4 -10 14 -14 26 -11 11 3 18 0 17 -6 -1
-6 27 -27 63 -47 36 -20 86 -49 113 -64 26 -15 53 -24 60 -20 6 4 9 4 5 -1
-11 -11 29 -38 44 -29 6 4 8 3 5 -4 -6 -9 154 -108 172 -106 3 0 15 -8 25 -18
11 -10 26 -18 33 -18 7 0 13 -4 13 -9 0 -5 8 -11 18 -15 9 -3 31 -13 47 -23
106 -63 135 -80 175 -101 25 -13 62 -35 82 -49 21 -14 42 -22 49 -17 8 4 9 3
5 -4 -4 -7 7 -19 31 -29 21 -10 40 -21 41 -25 2 -5 7 -8 12 -8 4 0 38 -18 74
-40 36 -22 71 -40 78 -40 22 0 -5 -18 -217 -141 -189 -109 -273 -153 -252
-133 9 9 -42 36 -54 28 -5 -3 -9 -2 -8 3 3 20 -2 27 -11 13 -9 -13 -10 -13
-10 1 0 16 -65 54 -87 52 -7 0 -13 6 -13 14 0 8 -4 11 -10 8 -5 -3 -10 -2 -10
3 0 5 -8 12 -17 15 -24 8 -77 40 -81 50 -2 4 -10 7 -18 7 -9 0 -12 -5 -8 -12
4 -8 3 -10 -2 -5 -5 5 -9 13 -9 18 0 6 -22 22 -50 37 -27 15 -52 29 -55 32
-16 16 -72 40 -80 35 -6 -4 -10 -3 -9 2 3 20 -2 27 -11 13 -8 -13 -10 -12 -10
3 0 9 -6 17 -14 17 -8 0 -16 4 -18 8 -3 8 -113 72 -123 72 -4 0 -3 -6 1 -12 4
-8 3 -10 -2 -5 -5 5 -9 13 -9 19 0 6 -24 23 -54 39 -30 16 -60 34 -68 40 -7 6
-13 8 -13 5 0 -4 -7 0 -16 9 -9 9 -24 13 -32 10 -9 -3 -13 -3 -9 1 12 13 -115
88 -128 76 -5 -4 -5 -1 -1 6 6 10 3 13 -19 12 -3 0 -15 8 -26 18 -11 11 -38
27 -59 37 l-39 18 -388 -225 c-878 -510 -783 -458 -815 -442 -15 8 -28 11 -28
7 0 -4 -6 1 -13 11 -7 9 -22 18 -34 19 -12 0 -20 3 -18 6 7 7 -28 30 -46 31
-9 0 -19 7 -23 15 -3 8 -10 15 -16 15 -6 0 -8 -6 -4 -12 4 -7 -4 -1 -18 14
-14 14 -45 36 -69 48 -24 13 -57 31 -72 42 -15 11 -35 17 -43 14 -8 -3 -12 -2
-9 4 3 5 -6 15 -21 23 -26 13 -17 19 402 262 236 137 492 285 569 330 77 45
160 93 185 107 25 14 137 80 250 146 113 67 208 121 212 121 4 1 10 -4 13 -9z
m1086 -7 c13 -16 12 -17 -3 -4 -10 7 -18 15 -18 17 0 8 8 3 21 -13z m-711 3
c0 -2 -8 -10 -17 -17 -16 -13 -17 -12 -4 4 13 16 21 21 21 13z m160 0 c0 -2
-8 -10 -17 -17 -16 -13 -17 -12 -4 4 13 16 21 21 21 13z m141 -13 c13 -16 12
-17 -3 -4 -10 7 -18 15 -18 17 0 8 8 3 21 -13z m133 9 c2 -4 -4 -8 -14 -8 -10
0 -16 4 -14 8 3 4 9 8 14 8 5 0 11 -4 14 -8z m550 -32 c-6 -6 -10 -3 -10 10 0
13 4 16 10 10 7 -7 7 -13 0 -20z m-664 -6 c0 -8 -19 -13 -24 -6 -3 5 1 9 9 9
8 0 15 -2 15 -3z m634 -2 c3 -5 -1 -9 -9 -9 -8 0 -12 4 -9 9 3 4 7 8 9 8 2 0
6 -4 9 -8z m-364 -18 c0 -8 -19 -13 -24 -6 -3 5 1 9 9 9 8 0 15 -2 15 -3z
m360 -8 c0 -2 -8 -10 -17 -17 -16 -13 -17 -12 -4 4 13 16 21 21 21 13z m-409
-23 c13 -16 12 -17 -3 -4 -10 7 -18 15 -18 17 0 8 8 3 21 -13z m-190 -30 c13
-16 12 -17 -3 -4 -10 7 -18 15 -18 17 0 8 8 3 21 -13z m35 2 c-1 -8 -5 -17 -8
-21 -5 -4 -4 16 1 34 3 9 9 -1 7 -13z m82 -10 c-3 -3 -9 2 -12 12 -6 14 -5 15
5 6 7 -7 10 -15 7 -18z m-283 5 c3 -5 1 -10 -4 -10 -6 0 -11 5 -11 10 0 6 2
10 4 10 3 0 8 -4 11 -10z m325 6 c0 -3 -4 -8 -10 -11 -5 -3 -10 -1 -10 4 0 6
5 11 10 11 6 0 10 -2 10 -4z m45 -5 c-9 -8 -36 -10 -30 -2 2 4 11 8 20 8 8 0
13 -3 10 -6z m469 1 c3 -5 -1 -9 -9 -9 -8 0 -12 4 -9 9 3 4 7 8 9 8 2 0 6 -4
9 -8z m-936 -47 c-3 -3 -9 2 -12 12 -6 14 -5 15 5 6 7 -7 10 -15 7 -18z m783
8 c13 -16 12 -17 -3 -4 -10 7 -18 15 -18 17 0 8 8 3 21 -13z m160 0 c13 -16
12 -17 -3 -4 -10 7 -18 15 -18 17 0 8 8 3 21 -13z m36 2 c0 -8 -4 -12 -9 -9
-5 3 -6 10 -3 15 9 13 12 11 12 -6z m-873 -3 c2 -4 -4 -8 -14 -8 -10 0 -16 4
-14 8 3 4 9 8 14 8 5 0 11 -4 14 -8z m797 -19 c13 -16 12 -17 -3 -4 -10 7 -18
15 -18 17 0 8 8 3 21 -13z m-924 -16 c0 -8 -6 -14 -14 -14 -9 0 -10 4 -2 14 6
7 12 13 14 13 1 0 2 -6 2 -13z m717 -17 c-6 -6 -10 -3 -10 10 0 13 4 16 10 10
7 -7 7 -13 0 -20z m-444 14 c0 -8 -19 -13 -24 -6 -3 5 1 9 9 9 8 0 15 -2 15
-3z m327 -21 c-4 -3 -1 -13 6 -22 11 -14 10 -14 -5 -2 -16 12 -16 31 -1 31 4
0 3 -3 0 -7z m-473 -21 c2 -4 -4 -8 -14 -8 -10 0 -16 4 -14 8 3 4 9 8 14 8 5
0 11 -4 14 -8z m393 -7 c0 -8 -4 -12 -9 -9 -5 3 -6 10 -3 15 9 13 12 11 12 -6z
m637 -45 c-6 -6 -10 -3 -10 10 0 13 4 16 10 10 7 -7 7 -13 0 -20z m-720 4 c3
-8 2 -12 -4 -9 -6 3 -10 10 -10 16 0 14 7 11 14 -7z m926 12 c0 -2 -7 -7 -16
-10 -8 -3 -12 -2 -9 4 6 10 25 14 25 6z m-1222 -31 c-3 -3 -9 2 -12 12 -6 14
-5 15 5 6 7 -7 10 -15 7 -18z m467 5 c3 -6 -1 -7 -9 -4 -18 7 -21 14 -7 14 6
0 13 -4 16 -10z m395 6 c0 -2 -7 -7 -16 -10 -8 -3 -12 -2 -9 4 6 10 25 14 25
6z m-279 -23 c13 -16 12 -17 -3 -4 -10 7 -18 15 -18 17 0 8 8 3 21 -13z m-326
-31 c-3 -3 -11 0 -18 7 -9 10 -8 11 6 5 10 -3 15 -9 12 -12z m159 -22 c-6 -6
-10 -3 -10 10 0 13 4 16 10 10 7 -7 7 -13 0 -20z m816 14 c0 -8 -19 -13 -24
-6 -3 5 1 9 9 9 8 0 15 -2 15 -3z m-925 -43 c-9 -8 -36 -10 -30 -2 2 4 11 8
20 8 8 0 13 -3 10 -6z m365 5 c0 -2 -8 -10 -17 -17 -16 -13 -17 -12 -4 4 13
16 21 21 21 13z m27 -11 c0 -8 -4 -12 -9 -9 -5 3 -6 10 -3 15 9 13 12 11 12
-6z m400 0 c0 -8 -4 -12 -9 -9 -5 3 -6 10 -3 15 9 13 12 11 12 -6z m-802 -24
c3 -5 2 -12 -3 -15 -5 -3 -9 1 -9 9 0 17 3 19 12 6z m966 -8 c13 -16 12 -17
-3 -4 -10 7 -18 15 -18 17 0 8 8 3 21 -13z m-725 -5 c3 -4 -1 -5 -10 -4 -8 1
-18 5 -22 8 -3 4 1 5 10 4 8 -1 18 -5 22 -8z m124 6 c0 -8 -19 -13 -24 -6 -3
5 1 9 9 9 8 0 15 -2 15 -3z m94 -2 c3 -5 -1 -9 -9 -9 -8 0 -12 4 -9 9 3 4 7 8
9 8 2 0 6 -4 9 -8z m150 0 c3 -5 -1 -9 -9 -9 -8 0 -12 4 -9 9 3 4 7 8 9 8 2 0
6 -4 9 -8z m-607 -37 c0 -8 -4 -12 -9 -9 -5 3 -6 10 -3 15 9 13 12 11 12 -6z
m558 6 c3 -5 2 -12 -3 -15 -5 -3 -9 1 -9 9 0 17 3 19 12 6z m45 5 c0 -2 -8
-10 -17 -17 -16 -13 -17 -12 -4 4 13 16 21 21 21 13z m240 0 c0 -2 -8 -10 -17
-17 -16 -13 -17 -12 -4 4 13 16 21 21 21 13z m161 -13 c13 -16 12 -17 -3 -4
-10 7 -18 15 -18 17 0 8 8 3 21 -13z m-970 -10 c13 -16 12 -17 -3 -4 -10 7
-18 15 -18 17 0 8 8 3 21 -13z m843 -11 c3 -5 -1 -9 -9 -9 -8 0 -12 4 -9 9 3
4 7 8 9 8 2 0 6 -4 9 -8z m282 -28 c1 -9 0 -13 -4 -10 -3 4 -7 14 -8 22 -1 9
0 13 4 10 3 -4 7 -14 8 -22z m-946 -28 c0 -2 -8 -10 -17 -17 -16 -13 -17 -12
-4 4 13 16 21 21 21 13z m35 -6 c-3 -5 -12 -10 -18 -10 -7 0 -6 4 3 10 19 12
23 12 15 0z m426 -7 c13 -16 12 -17 -3 -4 -10 7 -18 15 -18 17 0 8 8 3 21 -13z
m615 5 c3 -4 -1 -5 -10 -4 -8 1 -18 5 -22 8 -3 4 1 5 10 4 8 -1 18 -5 22 -8z
m-851 -26 c-3 -3 -11 0 -18 7 -9 10 -8 11 6 5 10 -3 15 -9 12 -12z m330 8 c-3
-5 -12 -10 -18 -10 -7 0 -6 4 3 10 19 12 23 12 15 0z m-1609 -26 c1 -9 0 -13
-4 -10 -3 4 -7 14 -8 22 -1 9 0 13 4 10 3 -4 7 -14 8 -22z m38 8 c3 -5 -1 -9
-9 -9 -8 0 -12 4 -9 9 3 4 7 8 9 8 2 0 6 -4 9 -8z m1443 -19 c-4 -3 -1 -13 6
-22 11 -14 10 -14 -5 -2 -16 12 -16 31 -1 31 4 0 3 -3 0 -7z m247 -21 c2 -4
-4 -8 -14 -8 -10 0 -16 4 -14 8 3 4 9 8 14 8 5 0 11 -4 14 -8z m246 4 c0 -2
-8 -10 -17 -17 -16 -13 -17 -12 -4 4 13 16 21 21 21 13z m84 -12 c3 -8 2 -12
-4 -9 -6 3 -10 10 -10 16 0 14 7 11 14 -7z m-460 -44 c-6 -6 -10 -3 -10 10 0
13 4 16 10 10 7 -7 7 -13 0 -20z m247 13 c13 -16 12 -17 -3 -4 -10 7 -18 15
-18 17 0 8 8 3 21 -13z m-351 -39 c0 -8 -19 -13 -24 -6 -3 5 1 9 9 9 8 0 15
-2 15 -3z m-1416 -54 c-6 -6 -10 -3 -10 10 0 13 4 16 10 10 7 -7 7 -13 0 -20z
m80 0 c-6 -6 -10 -3 -10 10 0 13 4 16 10 10 7 -7 7 -13 0 -20z m1179 15 c-3
-9 -8 -14 -10 -11 -3 3 -2 9 2 15 9 16 15 13 8 -4z m308 -2 c13 -16 12 -17 -3
-4 -10 7 -18 15 -18 17 0 8 8 3 21 -13z m35 2 c-1 -8 -5 -17 -8 -21 -5 -4 -4
16 1 34 3 9 9 -1 7 -13z m85 -2 c13 -16 12 -17 -3 -4 -10 7 -18 15 -18 17 0 8
8 3 21 -13z m-1561 3 c0 -3 -4 -8 -10 -11 -5 -3 -10 -1 -10 4 0 6 5 11 10 11
6 0 10 -2 10 -4z m1205 -46 c-3 -5 -12 -10 -18 -10 -7 0 -6 4 3 10 19 12 23
12 15 0z m149 2 c3 -5 -1 -9 -9 -9 -8 0 -12 4 -9 9 3 4 7 8 9 8 2 0 6 -4 9 -8z
m37 -9 c13 -16 12 -17 -3 -4 -10 7 -18 15 -18 17 0 8 8 3 21 -13z m-1595 -39
c1 -9 0 -13 -4 -10 -3 4 -7 14 -8 22 -1 9 0 13 4 10 3 -4 7 -14 8 -22z m1565
9 c13 -16 12 -17 -3 -4 -10 7 -18 15 -18 17 0 8 8 3 21 -13z m-1241 -27 c0 -2
-8 -10 -17 -17 -16 -13 -17 -12 -4 4 13 16 21 21 21 13z m-43 -21 c0 -8 -4
-12 -9 -9 -5 3 -6 10 -3 15 9 13 12 11 12 -6z m213 11 c0 -2 -8 -10 -17 -17
-16 -13 -17 -12 -4 4 13 16 21 21 21 13z m-157 -41 c-3 -9 -8 -14 -10 -11 -3
3 -2 9 2 15 9 16 15 13 8 -4z m264 -20 c0 -8 -4 -12 -9 -9 -5 3 -6 10 -3 15 9
13 12 11 12 -6z m-356 -22 c13 -16 12 -17 -3 -4 -10 7 -18 15 -18 17 0 8 8 3
21 -13z m-1927 -9 c3 -8 2 -12 -4 -9 -6 3 -10 10 -10 16 0 14 7 11 14 -7z
m1963 -19 c0 -8 -4 -12 -9 -9 -5 3 -6 10 -3 15 9 13 12 11 12 -6z m-82 -34 c3
-5 2 -12 -3 -15 -5 -3 -9 1 -9 9 0 17 3 19 12 6z m55 -15 c0 -2 -8 -10 -17
-17 -16 -13 -17 -12 -4 4 13 16 21 21 21 13z m-174 -52 c1 -9 0 -13 -4 -10 -3
4 -7 14 -8 22 -1 9 0 13 4 10 3 -4 7 -14 8 -22z m-1872 8 c3 -5 -1 -9 -9 -9
-8 0 -12 4 -9 9 3 4 7 8 9 8 2 0 6 -4 9 -8z m46 2 c0 -8 -19 -13 -24 -6 -3 5
1 9 9 9 8 0 15 -2 15 -3z m1990 0 c0 -8 -19 -13 -24 -6 -3 5 1 9 9 9 8 0 15
-2 15 -3z m64 -2 c3 -5 -1 -9 -9 -9 -8 0 -12 4 -9 9 3 4 7 8 9 8 2 0 6 -4 9
-8z m180 0 c3 -5 -1 -9 -9 -9 -8 0 -12 4 -9 9 3 4 7 8 9 8 2 0 6 -4 9 -8z
m270 -8 c3 -8 2 -12 -4 -9 -6 3 -10 10 -10 16 0 14 7 11 14 -7z m-2274 -18 c0
-2 -8 -10 -17 -17 -16 -13 -17 -12 -4 4 13 16 21 21 21 13z m1955 -5 c3 -5 2
-12 -3 -15 -5 -3 -9 1 -9 9 0 17 3 19 12 6z m-2425 -5 c0 -2 -8 -10 -17 -17
-16 -13 -17 -12 -4 4 13 16 21 21 21 13z m27 -11 c0 -8 -4 -12 -9 -9 -5 3 -6
10 -3 15 9 13 12 11 12 -6z m517 7 c3 -5 -1 -9 -9 -9 -8 0 -12 4 -9 9 3 4 7 8
9 8 2 0 6 -4 9 -8z m7 -39 c13 -16 12 -17 -3 -4 -17 13 -22 21 -14 21 2 0 10
-8 17 -17z m-526 -3 c3 -5 1 -10 -4 -10 -6 0 -11 5 -11 10 0 6 2 10 4 10 3 0
8 -4 11 -10z m2542 -5 c0 -8 -4 -12 -9 -9 -5 3 -6 10 -3 15 9 13 12 11 12 -6z
m277 -1 c3 -8 2 -12 -4 -9 -6 3 -10 10 -10 16 0 14 7 11 14 -7z m-2449 -14 c3
-6 -1 -7 -9 -4 -18 7 -21 14 -7 14 6 0 13 -4 16 -10z m1675 6 c0 -2 -7 -7 -16
-10 -8 -3 -12 -2 -9 4 6 10 25 14 25 6z m-1920 -10 c0 -2 -8 -10 -17 -17 -16
-13 -17 -12 -4 4 13 16 21 21 21 13z m200 -20 c-7 -7 -13 -7 -20 0 -6 6 -3 10
10 10 13 0 16 -4 10 -10z m1760 0 c-7 -7 -13 -7 -20 0 -6 6 -3 10 10 10 13 0
16 -4 10 -10z m431 -3 c13 -16 12 -17 -3 -4 -10 7 -18 15 -18 17 0 8 8 3 21
-13z m-557 -43 c-6 -6 -10 -3 -10 10 0 13 4 16 10 10 7 -7 7 -13 0 -20z m687
13 c13 -16 12 -17 -3 -4 -10 7 -18 15 -18 17 0 8 8 3 21 -13z m35 2 c-1 -8 -5
-17 -8 -21 -5 -4 -4 16 1 34 3 9 9 -1 7 -13z m80 0 c-1 -8 -5 -17 -8 -21 -5
-4 -4 16 1 34 3 9 9 -1 7 -13z m78 -15 c-6 -6 -10 -3 -10 10 0 13 4 16 10 10
7 -7 7 -13 0 -20z m-2959 11 c3 -5 2 -12 -3 -15 -5 -3 -9 1 -9 9 0 17 3 19 12
6z m2119 -7 c3 -8 2 -12 -4 -9 -6 3 -10 10 -10 16 0 14 7 11 14 -7z m91 6 c3
-6 -1 -7 -9 -4 -18 7 -21 14 -7 14 6 0 13 -4 16 -10z m470 -8 c-3 -3 -11 0
-18 7 -9 10 -8 11 6 5 10 -3 15 -9 12 -12z m171 6 c3 -4 -1 -5 -10 -4 -8 1
-18 5 -22 8 -3 4 1 5 10 4 8 -1 18 -5 22 -8z m-2986 -18 c0 -5 -5 -10 -11 -10
-5 0 -7 5 -4 10 3 6 8 10 11 10 2 0 4 -4 4 -10z m737 -15 c0 -8 -4 -12 -9 -9
-5 3 -6 10 -3 15 9 13 12 11 12 -6z m1644 -2 c13 -16 12 -17 -3 -4 -10 7 -18
15 -18 17 0 8 8 3 21 -13z m443 -1 c2 -4 -4 -8 -14 -8 -10 0 -16 4 -14 8 3 4
9 8 14 8 5 0 11 -4 14 -8z m250 -8 c3 -8 2 -12 -4 -9 -6 3 -10 10 -10 16 0 14
7 11 14 -7z m-900 -11 c4 -5 11 -8 14 -8 4 0 22 -10 39 -23 18 -13 37 -21 42
-18 5 3 11 0 14 -7 3 -8 20 -21 39 -31 18 -9 51 -27 73 -41 22 -13 63 -36 90
-51 28 -15 62 -35 76 -45 14 -10 29 -16 33 -12 3 3 6 1 6 -5 0 -7 7 -12 15
-12 8 0 15 -4 15 -9 0 -5 14 -14 32 -20 39 -14 62 2 -237 -172 -126 -73 -241
-134 -255 -134 -14 0 -30 -3 -36 -7 -6 -4 -11 -1 -11 7 0 8 4 12 9 9 4 -3 8
-1 8 4 0 11 -71 46 -89 43 -7 -1 -10 2 -6 8 3 6 -1 11 -9 11 -9 0 -16 4 -16 8
0 10 -83 50 -87 42 -1 -3 -8 4 -16 14 -8 11 -19 16 -26 12 -6 -4 -11 -4 -10 1
3 20 -2 27 -11 13 -9 -13 -10 -13 -10 0 0 9 -17 24 -37 35 -21 10 -50 27 -64
37 -14 9 -29 15 -33 11 -3 -3 -6 -1 -6 5 0 7 -17 19 -37 27 -30 13 -35 18 -23
25 143 85 496 289 501 289 3 1 9 -2 13 -6z m-2118 -23 c0 -12 -4 -16 -9 -11
-5 5 -6 14 -3 20 10 15 12 14 12 -9z m660 -2 c4 -7 4 -10 -1 -6 -4 4 -15 2
-24 -5 -14 -11 -14 -10 -2 6 16 20 18 21 27 5z m-495 -35 c13 -16 12 -17 -3
-4 -10 7 -18 15 -18 17 0 8 8 3 21 -13z m34 -2 c3 -5 2 -12 -3 -15 -5 -3 -9 1
-9 9 0 17 3 19 12 6z m295 5 c0 -2 -8 -10 -17 -17 -16 -13 -17 -12 -4 4 13 16
21 21 21 13z m1920 0 c0 -2 -8 -10 -17 -17 -16 -13 -17 -12 -4 4 13 16 21 21
21 13z m27 -11 c0 -8 -4 -12 -9 -9 -5 3 -6 10 -3 15 9 13 12 11 12 -6z m213
11 c0 -2 -8 -10 -17 -17 -16 -13 -17 -12 -4 4 13 16 21 21 21 13z m-2695 -26
c3 -5 1 -10 -4 -10 -6 0 -11 5 -11 10 0 6 2 10 4 10 3 0 8 -4 11 -10z m123
-25 c-3 -3 -9 2 -12 12 -6 14 -5 15 5 6 7 -7 10 -15 7 -18z m60 0 c-3 -3 -9 2
-12 12 -6 14 -5 15 5 6 7 -7 10 -15 7 -18z m2268 3 c3 -4 -1 -5 -10 -4 -8 1
-18 5 -22 8 -3 4 1 5 10 4 8 -1 18 -5 22 -8z m-1926 -12 c0 -2 -7 -7 -16 -10
-8 -3 -12 -2 -9 4 6 10 25 14 25 6z m-363 -19 c0 -8 -6 -14 -14 -14 -9 0 -10
4 -2 14 6 7 12 13 14 13 1 0 2 -6 2 -13z m247 -5 c2 -4 -4 -8 -14 -8 -10 0
-16 4 -14 8 3 4 9 8 14 8 5 0 11 -4 14 -8z m2427 -9 c13 -16 12 -17 -3 -4 -10
7 -18 15 -18 17 0 8 8 3 21 -13z m14 -32 c-9 -8 -36 -10 -30 -2 2 4 11 8 20 8
8 0 13 -3 10 -6z m-244 -38 c13 -16 12 -17 -3 -4 -10 7 -18 15 -18 17 0 8 8 3
21 -13z m-2241 1 c0 -8 -19 -13 -24 -6 -3 5 1 9 9 9 8 0 15 -2 15 -3z m2275
-3 c3 -5 2 -12 -3 -15 -5 -3 -9 1 -9 9 0 17 3 19 12 6z m-1015 -101 c0 -5 -5
-10 -11 -10 -5 0 -7 5 -4 10 3 6 8 10 11 10 2 0 4 -4 4 -10z m-50 -14 c0 -2
-8 -10 -17 -17 -16 -13 -17 -12 -4 4 13 16 21 21 21 13z m2347 -51 c0 -8 -4
-12 -9 -9 -5 3 -6 10 -3 15 9 13 12 11 12 -6z m-2192 -34 c-9 -8 -36 -10 -30
-2 2 4 11 8 20 8 8 0 13 -3 10 -6z m2125 5 c0 -2 -8 -10 -17 -17 -16 -13 -17
-12 -4 4 13 16 21 21 21 13z m227 -15 c0 -11 -5 -18 -9 -15 -4 3 -5 11 -1 19
7 21 12 19 10 -4z m-2356 -28 c13 -16 12 -17 -3 -4 -10 7 -18 15 -18 17 0 8 8
3 21 -13z m213 -29 c3 -8 2 -12 -4 -9 -6 3 -10 10 -10 16 0 14 7 11 14 -7z
m-530 -12 c2 -4 -4 -8 -14 -8 -10 0 -16 4 -14 8 3 4 9 8 14 8 5 0 11 -4 14 -8z
m173 -7 c0 -8 -4 -12 -9 -9 -5 3 -6 10 -3 15 9 13 12 11 12 -6z m2100 -10 c0
-8 -4 -12 -9 -9 -5 3 -6 10 -3 15 9 13 12 11 12 -6z m416 -20 c-3 -9 -8 -14
-10 -11 -3 3 -2 9 2 15 9 16 15 13 8 -4z m-2763 1 c0 -2 -8 -10 -17 -17 -16
-13 -17 -12 -4 4 13 16 21 21 21 13z m221 -13 c13 -16 12 -17 -3 -4 -10 7 -18
15 -18 17 0 8 8 3 21 -13z m280 0 c13 -16 12 -17 -3 -4 -10 7 -18 15 -18 17 0
8 8 3 21 -13z m2040 0 c13 -16 12 -17 -3 -4 -10 7 -18 15 -18 17 0 8 8 3 21
-13z m483 9 c3 -5 -1 -9 -9 -9 -8 0 -12 4 -9 9 3 4 7 8 9 8 2 0 6 -4 9 -8z
m-2398 -48 c1 -9 0 -13 -4 -10 -3 4 -7 14 -8 22 -1 9 0 13 4 10 3 -4 7 -14 8
-22z m2000 11 c-1 -8 -5 -17 -8 -21 -5 -4 -4 16 1 34 3 9 9 -1 7 -13z m85 -2
c13 -16 12 -17 -3 -4 -10 7 -18 15 -18 17 0 8 8 3 21 -13z m-2687 -9 c3 -8 2
-12 -4 -9 -6 3 -10 10 -10 16 0 14 7 11 14 -7z m496 10 c0 -8 -19 -13 -24 -6
-3 5 1 9 9 9 8 0 15 -2 15 -3z m144 -2 c3 -5 -1 -9 -9 -9 -8 0 -12 4 -9 9 3 4
7 8 9 8 2 0 6 -4 9 -8z m1810 0 c3 -5 -1 -9 -9 -9 -8 0 -12 4 -9 9 3 4 7 8 9
8 2 0 6 -4 9 -8z m41 -2 c3 -6 -1 -7 -9 -4 -18 7 -21 14 -7 14 6 0 13 -4 16
-10z m30 1 c3 -5 2 -12 -3 -15 -5 -3 -9 1 -9 9 0 17 3 19 12 6z m49 1 c3 -5
-1 -9 -9 -9 -8 0 -12 4 -9 9 3 4 7 8 9 8 2 0 6 -4 9 -8z m470 0 c3 -5 -1 -9
-9 -9 -8 0 -12 4 -9 9 3 4 7 8 9 8 2 0 6 -4 9 -8z m-384 -16 c0 -2 -8 -10 -17
-17 -16 -13 -17 -12 -4 4 13 16 21 21 21 13z m-2370 -10 c0 -2 -8 -10 -17 -17
-16 -13 -17 -12 -4 4 13 16 21 21 21 13z m195 -5 c3 -5 2 -12 -3 -15 -5 -3 -9
1 -9 9 0 17 3 19 12 6z m1920 0 c3 -5 2 -12 -3 -15 -5 -3 -9 1 -9 9 0 17 3 19
12 6z m45 5 c0 -2 -8 -10 -17 -17 -16 -13 -17 -12 -4 4 13 16 21 21 21 13z
m-2710 -10 c0 -2 -8 -10 -17 -17 -16 -13 -17 -12 -4 4 13 16 21 21 21 13z m27
-11 c0 -8 -4 -12 -9 -9 -5 3 -6 10 -3 15 9 13 12 11 12 -6z m693 11 c0 -2 -8
-10 -17 -17 -16 -13 -17 -12 -4 4 13 16 21 21 21 13z m2240 0 c0 -2 -8 -10
-17 -17 -16 -13 -17 -12 -4 4 13 16 21 21 21 13z m-494 -46 c0 -12 -4 -16 -9
-11 -5 5 -6 14 -3 20 10 15 12 14 12 -9z m-2441 1 c3 -5 2 -12 -3 -15 -5 -3
-9 1 -9 9 0 17 3 19 12 6z m2925 3 c0 -8 -19 -13 -24 -6 -3 5 1 9 9 9 8 0 15
-2 15 -3z m-3029 -50 c9 -8 24 -12 33 -8 11 4 16 2 14 -7 -2 -8 3 -13 10 -11
6 1 12 -3 12 -8 0 -10 48 -35 63 -32 4 1 7 -3 7 -8 0 -6 12 -16 28 -23 15 -6
33 -17 40 -24 8 -7 17 -11 22 -8 4 3 11 -2 14 -11 3 -8 10 -12 16 -9 5 3 10 2
10 -3 0 -10 60 -38 73 -34 4 1 7 -3 7 -8 0 -16 44 -29 53 -16 6 7 7 5 3 -6 -3
-12 7 -24 41 -42 25 -14 50 -23 56 -19 5 3 7 1 3 -5 -3 -6 -2 -13 3 -16 5 -4
12 -2 16 4 3 5 12 10 18 10 7 0 6 -4 -3 -11 -10 -7 -11 -12 -4 -15 7 -3 38
-21 70 -40 33 -20 64 -36 69 -37 6 -1 12 -4 15 -7 3 -3 17 -13 32 -22 20 -13
28 -14 31 -5 3 7 6 4 6 -6 1 -15 30 -34 55 -35 5 0 12 -4 15 -9 12 -17 62 -44
71 -38 6 3 10 0 10 -8 0 -20 31 -31 43 -15 6 9 7 8 3 -4 -4 -14 4 -22 31 -33
21 -9 40 -20 43 -25 3 -4 12 -10 20 -12 8 -2 19 -7 25 -11 5 -5 23 -16 40 -26
28 -17 31 -17 60 0 16 9 280 162 585 339 305 177 558 324 561 326 3 2 18 -4
33 -12 34 -17 39 -18 30 -2 -4 7 -3 8 5 4 6 -4 9 -12 6 -17 -4 -5 2 -12 12
-16 10 -4 47 -25 83 -47 36 -22 73 -39 83 -38 9 0 15 -3 12 -8 -3 -4 14 -18
37 -30 33 -17 43 -19 50 -8 8 10 9 9 5 -4 -4 -10 3 -23 20 -33 14 -10 23 -13
19 -7 -7 12 20 10 31 -3 4 -4 2 -5 -4 -1 -7 4 -13 3 -13 -2 0 -5 11 -14 25
-20 14 -6 25 -15 25 -19 0 -5 -361 -217 -802 -473 -440 -256 -805 -470 -811
-476 -11 -11 -57 4 -57 19 0 4 -9 7 -20 7 -11 0 -20 4 -20 8 0 10 -50 37 -62
34 -5 -1 -8 2 -8 6 0 13 -50 33 -62 26 -6 -4 -8 -2 -5 4 4 5 -13 22 -37 36
-49 29 -61 32 -50 14 4 -7 3 -8 -5 -4 -6 4 -9 11 -6 16 6 9 -141 100 -162 100
-7 0 -13 5 -13 10 0 6 -4 10 -10 10 -5 0 -34 16 -64 35 -37 24 -56 31 -59 22
-3 -7 -6 -5 -6 6 -1 9 -6 17 -12 17 -6 0 -29 13 -52 28 -23 16 -57 35 -74 43
-18 8 -33 16 -33 20 0 3 -16 11 -35 19 -19 8 -35 18 -35 23 0 5 -12 7 -27 3
-16 -3 -22 -3 -15 0 10 5 10 9 1 20 -6 8 -15 11 -20 8 -5 -3 -9 0 -9 5 0 6 -7
11 -16 11 -9 0 -12 -5 -8 -12 4 -7 3 -8 -5 -4 -6 4 -9 11 -6 16 8 12 -33 33
-47 24 -7 -4 -8 -3 -4 5 5 8 -3 16 -23 24 -17 6 -31 15 -31 19 0 4 -6 8 -14 8
-7 0 -19 7 -26 15 -10 12 -16 13 -27 4 -11 -9 -12 -9 -7 4 4 12 -2 18 -20 23
-14 3 -26 10 -26 16 0 5 -4 6 -10 3 -5 -3 -10 -2 -10 3 0 8 -54 38 -56 30 0
-1 -15 9 -32 24 -18 15 -42 30 -54 34 -13 4 -25 10 -28 14 -10 15 -142 80
-151 75 -5 -4 -6 1 -3 9 4 10 -4 16 -25 21 -17 4 -31 10 -31 14 0 4 -12 13
-27 20 -21 10 -28 9 -35 -1 -7 -10 -9 -10 -6 2 3 8 105 74 229 147 232 137
250 143 290 107z m504 7 c3 -5 2 -12 -3 -15 -5 -3 -9 1 -9 9 0 17 3 19 12 6z
m99 -7 c3 -8 2 -12 -4 -9 -6 3 -10 10 -10 16 0 14 7 11 14 -7z m1821 7 c3 -5
2 -12 -3 -15 -5 -3 -9 1 -9 9 0 17 3 19 12 6z m-2318 -36 c0 -8 -4 -12 -9 -9
-5 3 -6 10 -3 15 9 13 12 11 12 -6z m876 0 c-3 -9 -8 -14 -10 -11 -3 3 -2 9 2
15 9 16 15 13 8 -4z m-842 -12 c13 -16 12 -17 -3 -4 -10 7 -18 15 -18 17 0 8
8 3 21 -13z m419 11 c0 -8 -19 -13 -24 -6 -3 5 1 9 9 9 8 0 15 -2 15 -3z
m2240 0 c0 -8 -19 -13 -24 -6 -3 5 1 9 9 9 8 0 15 -2 15 -3z m-1929 -41 c13
-16 12 -17 -3 -4 -10 7 -18 15 -18 17 0 8 8 3 21 -13z m116 2 c0 -8 -4 -12 -9
-9 -5 3 -6 10 -3 15 9 13 12 11 12 -6z m1804 -2 c13 -16 12 -17 -3 -4 -17 13
-22 21 -14 21 2 0 10 -8 17 -17z m236 2 c0 -8 -4 -12 -9 -9 -5 3 -6 10 -3 15
9 13 12 11 12 -6z m-2353 -3 c2 -4 -4 -8 -14 -8 -10 0 -16 4 -14 8 3 4 9 8 14
8 5 0 11 -4 14 -8z m1916 -6 c-7 -7 -13 -7 -20 0 -6 6 -3 10 10 10 13 0 16 -4
10 -10z m406 2 c3 -4 -1 -5 -10 -4 -8 1 -18 5 -22 8 -3 4 1 5 10 4 8 -1 18 -5
22 -8z m-125 -35 c13 -16 12 -17 -3 -4 -10 7 -18 15 -18 17 0 8 8 3 21 -13z
m-2427 -9 c3 -8 2 -12 -4 -9 -6 3 -10 10 -10 16 0 14 7 11 14 -7z m20 -84 c-6
-6 -10 -3 -10 10 0 13 4 16 10 10 7 -7 7 -13 0 -20z m162 15 c-1 -8 -5 -17 -8
-21 -5 -4 -4 16 1 34 3 9 9 -1 7 -13z m78 -15 c-6 -6 -10 -3 -10 10 0 13 4 16
10 10 7 -7 7 -13 0 -20z m-199 10 c3 -5 1 -10 -4 -10 -6 0 -11 5 -11 10 0 6 2
10 4 10 3 0 8 -4 11 -10z m75 4 c0 -8 -19 -13 -24 -6 -3 5 1 9 9 9 8 0 15 -2
15 -3z m450 -28 c0 -2 -8 -10 -17 -17 -16 -13 -17 -12 -4 4 13 16 21 21 21 13z
m-556 -14 c3 -5 -1 -9 -9 -9 -8 0 -12 4 -9 9 3 4 7 8 9 8 2 0 6 -4 9 -8z m326
4 c0 -2 -8 -10 -17 -17 -16 -13 -17 -12 -4 4 13 16 21 21 21 13z m-10 -42 c0
-8 -19 -13 -24 -6 -3 5 1 9 9 9 8 0 15 -2 15 -3z m281 -41 c13 -16 12 -17 -3
-4 -10 7 -18 15 -18 17 0 8 8 3 21 -13z m-341 -39 c0 -8 -19 -13 -24 -6 -3 5
1 9 9 9 8 0 15 -2 15 -3z m58 -49 c-3 -3 -9 2 -12 12 -6 14 -5 15 5 6 7 -7 10
-15 7 -18z m38 5 c0 -12 -4 -16 -9 -11 -5 5 -6 14 -3 20 10 15 12 14 12 -9z
m45 3 c13 -16 12 -17 -3 -4 -10 7 -18 15 -18 17 0 8 8 3 21 -13z m-1450 -10
c13 -16 12 -17 -3 -4 -10 7 -18 15 -18 17 0 8 8 3 21 -13z m1573 9 c2 -4 -4
-8 -14 -8 -10 0 -16 4 -14 8 3 4 9 8 14 8 5 0 11 -4 14 -8z m-1720 -40 c3 -5
-1 -9 -9 -9 -8 0 -12 4 -9 9 3 4 7 8 9 8 2 0 6 -4 9 -8z m166 2 c0 -8 -19 -13
-24 -6 -3 5 1 9 9 9 8 0 15 -2 15 -3z m-170 -28 c0 -2 -8 -10 -17 -17 -16 -13
-17 -12 -4 4 13 16 21 21 21 13z m530 -10 c0 -2 -8 -10 -17 -17 -16 -13 -17
-12 -4 4 13 16 21 21 21 13z m1150 -30 c0 -2 -8 -10 -17 -17 -16 -13 -17 -12
-4 4 13 16 21 21 21 13z m156 -22 c1 -9 0 -13 -4 -10 -3 4 -7 14 -8 22 -1 9 0
13 4 10 3 -4 7 -14 8 -22z m-1482 0 c3 -8 2 -12 -4 -9 -6 3 -10 10 -10 16 0
14 7 11 14 -7z m-203 -41 c13 -16 12 -17 -3 -4 -10 7 -18 15 -18 17 0 8 8 3
21 -13z m214 8 c-9 -8 -36 -10 -30 -2 2 4 11 8 20 8 8 0 13 -3 10 -6z m1400
-1 c-3 -5 -12 -10 -18 -10 -7 0 -6 4 3 10 19 12 23 12 15 0z m-2005 -24 c0 -2
-8 -10 -17 -17 -16 -13 -17 -12 -4 4 13 16 21 21 21 13z m476 -16 c0 -12 -4
-16 -9 -11 -5 5 -6 14 -3 20 10 15 12 14 12 -9z m-546 4 c0 -8 -19 -13 -24 -6
-3 5 1 9 9 9 8 0 15 -2 15 -3z m320 0 c0 -8 -19 -13 -24 -6 -3 5 1 9 9 9 8 0
15 -2 15 -3z m-134 -50 c1 -9 0 -13 -4 -10 -3 4 -7 14 -8 22 -1 9 0 13 4 10 3
-4 7 -14 8 -22z m125 9 c13 -16 12 -17 -3 -4 -10 7 -18 15 -18 17 0 8 8 3 21
-13z m612 2 c-3 -9 -8 -14 -10 -11 -3 3 -2 9 2 15 9 16 15 13 8 -4z m147 11
c0 -2 -8 -10 -17 -17 -16 -13 -17 -12 -4 4 13 16 21 21 21 13z m-400 -20 c-7
-7 -13 -7 -20 0 -6 6 -3 10 10 10 13 0 16 -4 10 -10z m-385 -25 c3 -5 2 -12
-3 -15 -5 -3 -9 1 -9 9 0 17 3 19 12 6z m-215 -15 c-7 -7 -13 -7 -20 0 -6 6
-3 10 10 10 13 0 16 -4 10 -10z m174 6 c3 -5 -1 -9 -9 -9 -8 0 -12 4 -9 9 3 4
7 8 9 8 2 0 6 -4 9 -8z m-137 -37 c0 -8 -4 -12 -9 -9 -5 3 -6 10 -3 15 9 13
12 11 12 -6z m416 0 c-3 -9 -8 -14 -10 -11 -3 3 -2 9 2 15 9 16 15 13 8 -4z
m222 6 c3 -5 2 -12 -3 -15 -5 -3 -9 1 -9 9 0 17 3 19 12 6z m-675 -5 c0 -3 -4
-8 -10 -11 -5 -3 -10 -1 -10 4 0 6 5 11 10 11 6 0 10 -2 10 -4z m71 -13 c13
-16 12 -17 -3 -4 -10 7 -18 15 -18 17 0 8 8 3 21 -13z m579 13 c0 -2 -8 -10
-17 -17 -16 -13 -17 -12 -4 4 13 16 21 21 21 13z m435 -5 c-9 -8 -36 -10 -30
-2 2 4 11 8 20 8 8 0 13 -3 10 -6z m-129 -41 c0 -12 -4 -16 -9 -11 -5 5 -6 14
-3 20 10 15 12 14 12 -9z m-636 4 c0 -8 -19 -13 -24 -6 -3 5 1 9 9 9 8 0 15
-2 15 -3z m-201 -37 c8 -10 7 -14 -2 -14 -8 0 -14 6 -14 14 0 7 1 13 2 13 2 0
8 -6 14 -13z m201 9 c0 -2 -8 -10 -17 -17 -16 -13 -17 -12 -4 4 13 16 21 21
21 13z m-43 -21 c0 -8 -4 -12 -9 -9 -5 3 -6 10 -3 15 9 13 12 11 12 -6z m158
6 c3 -5 2 -12 -3 -15 -5 -3 -9 1 -9 9 0 17 3 19 12 6z m36 -8 c13 -16 12 -17
-3 -4 -10 7 -18 15 -18 17 0 8 8 3 21 -13z m320 0 c13 -16 12 -17 -3 -4 -10 7
-18 15 -18 17 0 8 8 3 21 -13z m280 0 c13 -16 12 -17 -3 -4 -10 7 -18 15 -18
17 0 8 8 3 21 -13z m280 -6 c-10 -9 -11 -8 -5 6 3 10 9 15 12 12 3 -3 0 -11
-7 -18z m-914 -32 c0 -8 -4 -12 -9 -9 -5 3 -6 10 -3 15 9 13 12 11 12 -6z
m263 9 c0 -8 -19 -13 -24 -6 -3 5 1 9 9 9 8 0 15 -2 15 -3z m34 -2 c3 -5 -1
-9 -9 -9 -8 0 -12 4 -9 9 3 4 7 8 9 8 2 0 6 -4 9 -8z m406 2 c0 -8 -19 -13
-24 -6 -3 5 1 9 9 9 8 0 15 -2 15 -3z m35 -3 c3 -5 2 -12 -3 -15 -5 -3 -9 1
-9 9 0 17 3 19 12 6z m-935 -15 c0 -3 -4 -8 -10 -11 -5 -3 -10 -1 -10 4 0 6 5
11 10 11 6 0 10 -2 10 -4z m597 -21 c0 -8 -4 -12 -9 -9 -5 3 -6 10 -3 15 9 13
12 11 12 -6z m240 0 c0 -8 -4 -12 -9 -9 -5 3 -6 10 -3 15 9 13 12 11 12 -6z
m240 0 c0 -8 -4 -12 -9 -9 -5 3 -6 10 -3 15 9 13 12 11 12 -6z m-1022 -5 c3
-5 1 -10 -4 -10 -6 0 -11 5 -11 10 0 6 2 10 4 10 3 0 8 -4 11 -10z m150 1 c-9
-8 -36 -10 -30 -2 2 4 11 8 20 8 8 0 13 -3 10 -6z m426 -8 c13 -16 12 -17 -3
-4 -10 7 -18 15 -18 17 0 8 8 3 21 -13z m339 13 c0 -2 -8 -10 -17 -17 -16 -13
-17 -12 -4 4 13 16 21 21 21 13z m141 -13 c13 -16 12 -17 -3 -4 -10 7 -18 15
-18 17 0 8 8 3 21 -13z m-915 -39 c1 -9 0 -13 -4 -10 -3 4 -7 14 -8 22 -1 9 0
13 4 10 3 -4 7 -14 8 -22z m1080 0 c1 -9 0 -13 -4 -10 -3 4 -7 14 -8 22 -1 9
0 13 4 10 3 -4 7 -14 8 -22z m-312 8 c3 -5 -1 -9 -9 -9 -8 0 -12 4 -9 9 3 4 7
8 9 8 2 0 6 -4 9 -8z m350 0 c3 -5 -1 -9 -9 -9 -8 0 -12 4 -9 9 3 4 7 8 9 8 2
0 6 -4 9 -8z m-1109 -41 c-9 -8 -36 -10 -30 -2 2 4 11 8 20 8 8 0 13 -3 10 -6z
m1235 5 c0 -2 -7 -7 -16 -10 -8 -3 -12 -2 -9 4 6 10 25 14 25 6z m-1044 -52
c1 -9 0 -13 -4 -10 -3 4 -7 14 -8 22 -1 9 0 13 4 10 3 -4 7 -14 8 -22z m80 0
c1 -9 0 -13 -4 -10 -3 4 -7 14 -8 22 -1 9 0 13 4 10 3 -4 7 -14 8 -22z m-106
12 c0 -2 -8 -10 -17 -17 -16 -13 -17 -12 -4 4 13 16 21 21 21 13z m64 -4 c3
-5 -1 -9 -9 -9 -8 0 -12 4 -9 9 3 4 7 8 9 8 2 0 6 -4 9 -8z m80 0 c3 -5 -1 -9
-9 -9 -8 0 -12 4 -9 9 3 4 7 8 9 8 2 0 6 -4 9 -8z m556 2 c0 -8 -19 -13 -24
-6 -3 5 1 9 9 9 8 0 15 -2 15 -3z m-510 -28 c0 -2 -8 -10 -17 -17 -16 -13 -17
-12 -4 4 13 16 21 21 21 13z m480 0 c0 -2 -8 -10 -17 -17 -16 -13 -17 -12 -4
4 13 16 21 21 21 13z m480 0 c0 -2 -8 -10 -17 -17 -16 -13 -17 -12 -4 4 13 16
21 21 21 13z m-550 -10 c0 -2 -8 -10 -17 -17 -16 -13 -17 -12 -4 4 13 16 21
21 21 13z m27 -11 c0 -8 -4 -12 -9 -9 -5 3 -6 10 -3 15 9 13 12 11 12 -6z
m247 7 c2 -4 -4 -8 -14 -8 -10 0 -16 4 -14 8 3 4 9 8 14 8 5 0 11 -4 14 -8z
m-450 -52 c-6 -6 -10 -3 -10 10 0 13 4 16 10 10 7 -7 7 -13 0 -20z m201 -19
c3 -5 2 -12 -3 -15 -5 -3 -9 1 -9 9 0 17 3 19 12 6z m562 -16 c0 -8 -4 -12 -9
-9 -5 3 -6 10 -3 15 9 13 12 11 12 -6z m-156 -32 c13 -16 12 -17 -3 -4 -10 7
-18 15 -18 17 0 8 8 3 21 -13z m156 -38 c0 -8 -4 -12 -9 -9 -5 3 -6 10 -3 15
9 13 12 11 12 -6z m-347 1 c0 -2 -8 -10 -17 -17 -16 -13 -17 -12 -4 4 13 16
21 21 21 13z m541 -13 c13 -16 12 -17 -3 -4 -10 7 -18 15 -18 17 0 8 8 3 21
-13z m-1113 -38 c-3 -3 -9 2 -12 12 -6 14 -5 15 5 6 7 -7 10 -15 7 -18z m83 8
c13 -16 12 -17 -3 -4 -10 7 -18 15 -18 17 0 8 8 3 21 -13z m479 1 c0 -8 -19
-13 -24 -6 -3 5 1 9 9 9 8 0 15 -2 15 -3z m-319 -41 c13 -16 12 -17 -3 -4 -10
7 -18 15 -18 17 0 8 8 3 21 -13z m34 -2 c3 -5 2 -12 -3 -15 -5 -3 -9 1 -9 9 0
17 3 19 12 6z m441 -47 c1 -9 0 -13 -4 -10 -3 4 -7 14 -8 22 -1 9 0 13 4 10 3
-4 7 -14 8 -22z m441 11 c0 -8 -4 -12 -9 -9 -5 3 -6 10 -3 15 9 13 12 11 12
-6z m-1007 -1 c0 -8 -19 -13 -24 -6 -3 5 1 9 9 9 8 0 15 -2 15 -3z m27 -16 c2
-17 0 -19 -7 -8 -5 8 -6 18 -4 22 8 12 10 10 11 -14z m508 12 c-3 -5 -12 -10
-18 -10 -7 0 -6 4 3 10 19 12 23 12 15 0z m106 -13 c-10 -9 -11 -8 -5 6 3 10
9 15 12 12 3 -3 0 -11 -7 -18z m44 13 c3 -5 1 -10 -4 -10 -6 0 -11 5 -11 10 0
6 2 10 4 10 3 0 8 -4 11 -10z m51 -2 c3 -4 -1 -5 -10 -4 -8 1 -18 5 -22 8 -3
4 1 5 10 4 8 -1 18 -5 22 -8z m305 -5 c13 -16 12 -17 -3 -4 -10 7 -18 15 -18
17 0 8 8 3 21 -13z m-550 -30 c13 -16 12 -17 -3 -4 -10 7 -18 15 -18 17 0 8 8
3 21 -13z m239 13 c0 -2 -8 -10 -17 -17 -16 -13 -17 -12 -4 4 13 16 21 21 21
13z m161 -93 c13 -16 12 -17 -3 -4 -10 7 -18 15 -18 17 0 8 8 3 21 -13z m-281
-7 c-7 -7 -13 -7 -20 0 -6 6 -3 10 10 10 13 0 16 -4 10 -10z m315 5 c3 -5 2
-12 -3 -15 -5 -3 -9 1 -9 9 0 17 3 19 12 6z m121 -43 c3 -4 -1 -5 -10 -4 -8 1
-18 5 -22 8 -3 4 1 5 10 4 8 -1 18 -5 22 -8z m-75 -35 c13 -16 12 -17 -3 -4
-10 7 -18 15 -18 17 0 8 8 3 21 -13z m-197 -1 c2 -4 -4 -8 -14 -8 -10 0 -16 4
-14 8 3 4 9 8 14 8 5 0 11 -4 14 -8z m-118 -124 c3 -4 -1 -5 -10 -4 -8 1 -18
5 -22 8 -3 4 1 5 10 4 8 -1 18 -5 22 -8z m390 -84 c1 -9 0 -13 -4 -10 -3 4 -7
14 -8 22 -1 9 0 13 4 10 3 -4 7 -14 8 -22z m-226 10 c0 -8 -19 -13 -24 -6 -3
5 1 9 9 9 8 0 15 -2 15 -3z m64 -82 c3 -5 -1 -9 -9 -9 -8 0 -12 4 -9 9 3 4 7
8 9 8 2 0 6 -4 9 -8z m4 -47 c-3 -3 -9 2 -12 12 -6 14 -5 15 5 6 7 -7 10 -15
7 -18z m39 10 c0 -8 -4 -12 -9 -9 -5 3 -6 10 -3 15 9 13 12 11 12 -6z m124 -2
c13 -16 12 -17 -3 -4 -10 7 -18 15 -18 17 0 8 8 3 21 -13z m-90 -10 c13 -16
12 -17 -3 -4 -10 7 -18 15 -18 17 0 8 8 3 21 -13z"/>
<path d="M6440 3594 c-245 -52 -405 -264 -386 -514 19 -250 209 -429 471 -444
151 -8 293 37 384 122 50 46 54 35 -46 126 l-52 48 -33 -31 c-54 -51 -114 -74
-196 -77 -91 -4 -149 16 -212 73 -122 110 -127 326 -10 440 106 103 282 109
406 14 l51 -39 68 66 67 66 -42 38 c-57 51 -113 83 -184 103 -77 22 -203 26
-286 9z"/>
<path d="M5015 3503 l0 -88 150 -5 150 -5 0 -377 0 -378 110 0 110 0 0 378 0
377 150 5 150 5 0 88 1 87 -411 0 -411 0 1 -87z"/>
</g>
</svg>
